<svg xmlns="http://www.w3.org/2000/svg" width="2601" height="605" viewBox="0 0 2601 605" fill="none">
<path d="M1294.24 422.051V182.069H1466.93V225.669H1339.56V291.245H1460.06V333.132H1339.56V422.051H1294.24Z" fill="#33CCBA"/>
<path d="M1495.09 422.051H1536.97V252.108H1495.09V422.051ZM1540.75 205.073C1540.75 237.688 1491.31 237.688 1491.31 205.073C1491.31 172.457 1540.75 172.457 1540.75 205.073Z" fill="#33CCBA"/>
<path d="M1699.37 422.051V333.473C1699.37 307.724 1685.29 288.156 1658.51 288.156C1632.76 288.156 1615.25 309.784 1615.25 335.532V422.051H1573.71V252.449H1611.13L1613.88 275.453C1631.04 258.631 1648.21 250.045 1669.5 250.045C1709.32 250.045 1741.25 279.916 1741.25 333.132V422.051H1699.37Z" fill="#33CCBA"/>
<path d="M1809.92 337.25C1809.92 369.525 1832.24 388.749 1860.05 388.749C1925.96 388.749 1925.96 286.097 1860.05 286.097C1832.24 286.097 1809.92 304.979 1809.92 337.25ZM1911.54 252.794H1951.71V422.051H1912.23L1910.17 397.333C1900.56 417.247 1874.12 426.859 1855.24 427.199C1805.12 427.545 1768.04 396.646 1768.04 337.25C1768.04 278.886 1806.83 248.331 1856.27 248.673C1878.93 248.673 1900.56 259.317 1910.17 276.139L1911.54 252.794Z" fill="#33CCBA"/>
<path d="M2111.71 422.051V333.473C2111.71 307.724 2097.63 288.156 2070.85 288.156C2045.11 288.156 2027.6 309.784 2027.6 335.532V422.051H1986.05V252.449H2023.48L2026.22 275.453C2043.39 258.631 2060.56 250.045 2081.84 250.045C2121.67 250.045 2153.59 279.916 2153.59 333.132V422.051H2111.71Z" fill="#33CCBA"/>
<path d="M2334.87 400.423C2315.31 419.647 2294.71 427.2 2269.64 427.2C2220.55 427.2 2179.69 397.674 2179.69 337.595C2179.69 277.512 2220.55 247.987 2269.64 247.987C2293.68 247.987 2312.21 254.854 2330.75 273.05L2304.32 300.858C2294.36 291.932 2282 287.47 2270.33 287.47C2242.18 287.47 2221.58 308.07 2221.58 337.595C2221.58 369.866 2243.55 387.031 2269.64 387.031C2283.03 387.031 2296.42 383.255 2306.72 372.956L2334.87 400.423Z" fill="#33CCBA"/>
<path d="M2488 317.682C2485.25 295.71 2468.08 284.72 2444.05 284.72C2421.39 284.72 2402.85 295.71 2396.67 317.682H2488ZM2395.98 352.356C2398.73 373.3 2416.93 388.407 2446.45 388.407C2461.9 388.407 2482.16 382.568 2491.77 372.611L2518.55 399.05C2500.7 417.588 2471.52 426.514 2445.77 426.514C2387.4 426.514 2352.73 390.466 2352.73 336.223C2352.73 284.72 2387.75 247.642 2442.68 247.642C2499.33 247.642 2534.69 282.662 2528.17 352.356H2395.98Z" fill="#33CCBA"/>
<path d="M751.602 326.742L727.79 354.629V423.68H682V182H727.79V291.553L747.938 261.509L804.566 182H860.888L781.976 289.395L863.177 423.68H808.687L751.602 326.742ZM966.969 374.049C966.969 368.185 964.273 363.592 958.879 360.272C953.588 356.841 945.041 353.798 933.237 351.143C893.959 342.179 874.32 324.031 874.32 296.699C874.32 280.763 880.374 267.484 892.484 256.861C904.694 246.127 920.619 240.76 940.258 240.76C961.22 240.76 977.959 246.127 990.475 256.861C1003.09 267.596 1009.4 281.538 1009.4 298.69H965.29C965.29 291.829 963.254 286.186 959.185 281.76C955.114 277.223 948.755 274.955 940.105 274.955C932.677 274.955 926.927 276.78 922.858 280.432C918.787 284.084 916.753 288.732 916.753 294.375C916.753 299.687 919.042 304.002 923.621 307.322C928.302 310.531 936.137 313.352 947.127 315.787C958.116 318.111 967.376 320.767 974.906 323.754C998.208 333.05 1009.86 349.15 1009.86 372.057C1009.86 388.434 1003.4 401.714 990.475 411.894C977.552 421.964 960.864 427 940.411 427C926.572 427 914.259 424.343 903.472 419.032C892.789 413.61 884.394 406.251 878.289 396.955C872.183 387.549 869.13 377.424 869.13 366.58H910.952C911.359 375.1 914.259 381.629 919.652 386.166C925.045 390.704 932.27 392.972 941.326 392.972C949.772 392.972 956.132 391.256 960.406 387.826C964.781 384.286 966.969 379.693 966.969 374.049ZM1175.01 324.916H1087.09V423.68H1041.3V182H1186V222.336H1087.09V284.747H1175.01V324.916Z" fill="#33CCBA"/>
<rect x="262" y="256" width="42" height="4" fill="#33CCBA"/>
<rect x="320" y="378" width="42" height="8" fill="#33CCBA"/>
<rect x="264" y="284" width="42" height="8" fill="#33CCBA"/>
<rect x="282" y="228" width="43" height="4" fill="#33CCBA"/>
<rect x="184" y="378" width="42" height="8" fill="#33CCBA"/>
<rect x="184" y="202" width="42" height="8" fill="#33CCBA"/>
<circle cx="303" cy="288" r="255" fill="#33CCBA"/>
<path d="M297.838 310.55L273.262 336.857V402H226V174H273.262V277.352L294.057 249.008L352.504 174H410.637L329.188 275.316L413 402H356.759L297.838 310.55Z" fill="white"/>
<rect x="320" y="210" width="45" height="5" rx="2.5" fill="#33CCBA"/>
<rect x="326" y="359" width="45" height="5" rx="2.5" fill="#33CCBA"/>
<rect x="311" y="245" width="45" height="5" rx="2.5" fill="#33CCBA"/>
<rect x="303" y="322" width="45" height="5" rx="2.5" fill="#33CCBA"/>
</svg>