<svg xmlns="http://www.w3.org/2000/svg" width="358" height="358" viewBox="0 0 358 358" fill="none">
<g filter="url(#filter0_d)">
<path d="M354 175C354 271.65 275.65 350 179 350C82.3502 350 4 271.65 4 175C4 78.3502 82.3502 0 179 0C275.65 0 354 78.3502 354 175Z" fill="#00BEA8"/>
</g>
<path d="M197.461 235.1L153.525 171.7L213.449 120.8C213.449 120.8 222.183 112 241.127 112H302.932C302.932 112 228.497 158.1 226.885 168.3C225.407 178.4 289.228 251.5 289.228 251.5H240.455C206.866 251.5 197.461 235.1 197.461 235.1Z" fill="white"/>
<path d="M164.139 143.7L172.47 112H108.246L76 236.6H140.089L149.897 198.8L131.222 171.7L164.139 143.7Z" fill="white"/>
<defs>
<filter id="filter0_d" x="0" y="0" width="358" height="358" filterUnits="userSpaceOnUse" color-interpolation-filters="sRGB">
<feFlood flood-opacity="0" result="BackgroundImageFix"/>
<feColorMatrix in="SourceAlpha" type="matrix" values="0 0 0 0 0 0 0 0 0 0 0 0 0 0 0 0 0 0 127 0"/>
<feOffset dy="4"/>
<feGaussianBlur stdDeviation="2"/>
<feColorMatrix type="matrix" values="0 0 0 0 0 0 0 0 0 0 0 0 0 0 0 0 0 0 0.25 0"/>
<feBlend mode="normal" in2="BackgroundImageFix" result="effect1_dropShadow"/>
<feBlend mode="normal" in="SourceGraphic" in2="effect1_dropShadow" result="shape"/>
</filter>
</defs>
</svg>